<?xml version="1.0" standalone="no"?>
<!DOCTYPE svg PUBLIC "-//W3C//DTD SVG 20010904//EN"
 "http://www.w3.org/TR/2001/REC-SVG-20010904/DTD/svg10.dtd">
<svg version="1.0" xmlns="http://www.w3.org/2000/svg"
 width="1080.000000pt" height="1080.000000pt" viewBox="0 0 1080.000000 1080.000000"
 preserveAspectRatio="xMidYMid meet">

<g transform="translate(0.000000,1080.000000) scale(0.100000,-0.100000)"
fill="#000000" stroke="none">
<path d="M5070 10789 c-667 -36 -1389 -224 -2000 -520 -579 -281 -1034 -602
-1471 -1038 -366 -366 -641 -725 -891 -1161 -799 -1397 -928 -3100 -348 -4605
276 -715 678 -1334 1220 -1875 493 -494 1023 -857 1660 -1138 873 -385 1909
-534 2837 -408 735 100 1375 313 1991 663 679 385 1281 930 1734 1569 708 998
1060 2217 988 3427 -72 1210 -530 2336 -1319 3242 -401 460 -882 853 -1417
1156 -902 511 -1920 745 -2984 688z m-221 -4894 c124 -44 220 -124 286 -241
110 -192 73 -436 -90 -599 -191 -191 -521 -193 -705 -4 -104 107 -151 207
-157 339 -12 236 120 428 347 504 25 8 56 17 70 20 45 9 204 -3 249 -19z
m2103 -45 c65 -38 121 -70 123 -70 2 0 23 -13 47 -29 24 -16 71 -44 104 -62
177 -97 454 -265 454 -275 0 -18 -30 -40 -108 -77 -84 -41 -133 -70 -182 -107
-19 -15 -66 -44 -105 -65 -38 -20 -76 -42 -84 -48 -7 -6 -21 -16 -31 -22 -10
-5 -67 -39 -127 -75 -197 -118 -224 -128 -257 -91 -36 40 -13 60 197 176 165
90 501 291 504 301 2 7 -33 33 -79 59 -46 26 -166 96 -268 155 -102 59 -227
130 -277 159 -54 30 -93 59 -93 68 0 24 33 73 49 73 8 0 68 -31 133 -70z
m-4186 -85 c44 -77 141 -243 214 -370 73 -126 139 -238 145 -248 12 -16 20 -7
78 90 36 59 75 126 87 148 12 22 72 126 132 230 61 105 121 208 134 231 36 64
48 70 89 48 34 -18 39 -25 36 -52 -1 -6 -89 -159 -195 -340 -106 -180 -210
-358 -231 -397 -62 -113 -105 -177 -117 -173 -13 5 -104 155 -175 288 -44 84
-94 167 -159 265 -46 71 -214 357 -214 367 0 16 56 58 75 56 13 -2 44 -46 101
-143z m3249 -355 l0 -495 -45 -3 c-33 -3 -47 1 -57 14 -10 14 -13 120 -13 485
0 257 3 475 6 484 5 12 18 15 58 13 l51 -3 0 -495z m1808 -277 c28 -26 40 -87
28 -145 -13 -60 -25 -84 -59 -120 -37 -41 -83 -53 -121 -33 -17 8 -31 21 -32
28 0 6 -9 -27 -18 -75 -10 -49 -20 -90 -23 -94 -3 -3 -24 -4 -45 -2 l-39 3 48
225 c26 124 48 226 48 228 0 1 16 2 36 2 32 0 35 -2 29 -21 l-7 -22 28 20 c16
11 36 23 44 26 21 8 62 -2 83 -20z m294 -5 l21 -20 7 21 c9 28 79 32 71 4 -2
-10 -17 -74 -31 -143 -36 -171 -31 -160 -70 -160 -29 0 -32 3 -28 21 6 22 6
22 -26 -2 -45 -33 -97 -31 -127 5 -45 51 -28 192 29 255 48 52 110 60 154 19z
m227 14 c3 -5 8 -55 12 -113 l7 -104 53 113 53 112 45 0 c25 0 46 -2 46 -5 0
-10 -182 -348 -207 -387 -29 -43 -76 -68 -127 -68 -34 0 -36 1 -36 35 0 32 2
35 30 35 41 0 80 42 80 84 0 17 -9 90 -20 161 -11 72 -20 133 -20 138 0 10 78
9 84 -1z"/>
<path d="M4590 5817 c-161 -37 -274 -164 -302 -340 -23 -151 34 -299 150 -388
77 -60 153 -84 257 -84 162 1 293 86 363 235 23 49 26 67 26 175 1 116 -1 123
-32 187 -42 85 -126 165 -205 196 -71 27 -185 35 -257 19z"/>
<path d="M7707 5079 c-23 -13 -43 -55 -52 -106 -5 -34 -3 -45 14 -62 17 -17
25 -19 41 -11 45 24 76 142 45 173 -19 20 -24 20 -48 6z"/>
<path d="M8042 5075 c-26 -19 -56 -112 -46 -149 10 -40 58 -36 84 6 30 49 37
114 15 138 -22 24 -25 24 -53 5z"/>
</g>
</svg>
